<mxfile host="Electron" modified="2024-03-14T11:34:01.887Z" agent="Mozilla/5.0 (Windows NT 10.0; Win64; x64) AppleWebKit/537.36 (KHTML, like Gecko) draw.io/23.1.5 Chrome/120.0.6099.109 Electron/28.1.0 Safari/537.36" etag="zAIt4WAg4cBeSziw1sHv" version="23.1.5" type="device">
  <diagram name="PÃ¡gina-1" id="cXjkJrpgge-3hh2PWbUD">
    <mxGraphModel dx="1434" dy="2063" grid="1" gridSize="10" guides="1" tooltips="1" connect="1" arrows="1" fold="1" page="1" pageScale="1" pageWidth="827" pageHeight="1169" math="0" shadow="0">
      <root>
        <mxCell id="0" />
        <mxCell id="1" parent="0" />
        <mxCell id="jh9AYpwP3yT9YthhTmjx-1" value="Iterable" style="ellipse;whiteSpace=wrap;html=1;fillColor=#ffe6cc;strokeColor=#d79b00;" vertex="1" parent="1">
          <mxGeometry x="49" y="-21" width="120" height="80" as="geometry" />
        </mxCell>
        <mxCell id="jh9AYpwP3yT9YthhTmjx-3" style="edgeStyle=none;curved=1;rounded=0;orthogonalLoop=1;jettySize=auto;html=1;exitX=0.5;exitY=0;exitDx=0;exitDy=0;fontSize=12;startSize=8;endSize=8;" edge="1" parent="1" target="jh9AYpwP3yT9YthhTmjx-1">
          <mxGeometry relative="1" as="geometry">
            <mxPoint x="111" y="132" as="sourcePoint" />
          </mxGeometry>
        </mxCell>
        <mxCell id="jh9AYpwP3yT9YthhTmjx-4" value="Collection" style="ellipse;whiteSpace=wrap;html=1;fillColor=#ffe6cc;strokeColor=#d79b00;" vertex="1" parent="1">
          <mxGeometry x="51" y="132" width="120" height="80" as="geometry" />
        </mxCell>
        <mxCell id="jh9AYpwP3yT9YthhTmjx-6" style="edgeStyle=none;curved=1;rounded=0;orthogonalLoop=1;jettySize=auto;html=1;exitX=0.5;exitY=0;exitDx=0;exitDy=0;fontSize=12;startSize=8;endSize=8;" edge="1" parent="1" source="jh9AYpwP3yT9YthhTmjx-5" target="jh9AYpwP3yT9YthhTmjx-4">
          <mxGeometry relative="1" as="geometry" />
        </mxCell>
        <mxCell id="jh9AYpwP3yT9YthhTmjx-5" value="List" style="ellipse;whiteSpace=wrap;html=1;fillColor=#ffe6cc;strokeColor=#d79b00;" vertex="1" parent="1">
          <mxGeometry x="51" y="262" width="120" height="80" as="geometry" />
        </mxCell>
        <mxCell id="jh9AYpwP3yT9YthhTmjx-8" style="edgeStyle=none;curved=1;rounded=0;orthogonalLoop=1;jettySize=auto;html=1;exitX=0.5;exitY=0;exitDx=0;exitDy=0;fontSize=12;startSize=8;endSize=8;" edge="1" parent="1" source="jh9AYpwP3yT9YthhTmjx-7" target="jh9AYpwP3yT9YthhTmjx-5">
          <mxGeometry relative="1" as="geometry" />
        </mxCell>
        <mxCell id="jh9AYpwP3yT9YthhTmjx-7" value="ABSTRACTLIST" style="rounded=1;whiteSpace=wrap;html=1;fillColor=#dae8fc;strokeColor=#6c8ebf;" vertex="1" parent="1">
          <mxGeometry x="49" y="404" width="120" height="60" as="geometry" />
        </mxCell>
        <mxCell id="jh9AYpwP3yT9YthhTmjx-10" style="edgeStyle=none;curved=1;rounded=0;orthogonalLoop=1;jettySize=auto;html=1;exitX=0.5;exitY=0;exitDx=0;exitDy=0;fontSize=12;startSize=8;endSize=8;" edge="1" parent="1" source="jh9AYpwP3yT9YthhTmjx-9" target="jh9AYpwP3yT9YthhTmjx-7">
          <mxGeometry relative="1" as="geometry" />
        </mxCell>
        <mxCell id="jh9AYpwP3yT9YthhTmjx-9" value="ArrayList" style="rounded=0;whiteSpace=wrap;html=1;fillColor=#e1d5e7;strokeColor=#9673a6;" vertex="1" parent="1">
          <mxGeometry x="49" y="526" width="120" height="60" as="geometry" />
        </mxCell>
        <mxCell id="jh9AYpwP3yT9YthhTmjx-11" value="Interface" style="text;html=1;align=center;verticalAlign=middle;whiteSpace=wrap;rounded=0;fontSize=16;" vertex="1" parent="1">
          <mxGeometry x="202" y="285" width="60" height="30" as="geometry" />
        </mxCell>
        <mxCell id="jh9AYpwP3yT9YthhTmjx-12" value="Abstract class" style="text;html=1;align=center;verticalAlign=middle;whiteSpace=wrap;rounded=0;fontSize=16;" vertex="1" parent="1">
          <mxGeometry x="161" y="419" width="142" height="30" as="geometry" />
        </mxCell>
        <mxCell id="jh9AYpwP3yT9YthhTmjx-13" value="Class" style="text;html=1;align=center;verticalAlign=middle;whiteSpace=wrap;rounded=0;fontSize=16;" vertex="1" parent="1">
          <mxGeometry x="202" y="541" width="60" height="30" as="geometry" />
        </mxCell>
      </root>
    </mxGraphModel>
  </diagram>
</mxfile>
